<svg width="50" height="50" viewBox="0 0 50 50" fill="none" xmlns="http://www.w3.org/2000/svg">
<g clip-path="url(#clip0)">
<path d="M41.2114 16.2109C36.3576 16.2109 32.4219 20.1459 32.4219 25C32.4219 29.8541 36.3576 33.7891 41.2114 33.7891C46.0652 33.7891 50 29.8541 50 25C50 20.1459 46.0652 16.2109 41.2114 16.2109ZM41.2114 31.3244C37.7247 31.3244 34.8884 28.4869 34.8884 25C34.8884 21.513 37.7247 18.6766 41.2114 18.6766C44.6981 18.6766 47.5345 21.513 47.5345 25C47.5345 28.4869 44.6982 31.3244 41.2114 31.3244Z" fill="#CCCCCC"/>
<path d="M41.2114 16.2109C36.3576 16.2109 32.4219 20.1459 32.4219 25C32.4219 29.8541 36.3576 33.7891 41.2114 33.7891C46.0652 33.7891 50 29.8541 50 25C50 20.1459 46.0652 16.2109 41.2114 16.2109ZM41.2114 31.3244C37.7247 31.3244 34.8884 28.4869 34.8884 25C34.8884 21.513 37.7247 18.6766 41.2114 18.6766C44.6981 18.6766 47.5345 21.513 47.5345 25C47.5345 28.4869 44.6982 31.3244 41.2114 31.3244Z" fill="url(#paint0_radial)"/>
<path d="M41.2114 16.2109C36.3576 16.2109 32.4219 20.1459 32.4219 25C32.4219 29.8541 36.3576 33.7891 41.2114 33.7891C46.0652 33.7891 50 29.8541 50 25C50 20.1459 46.0652 16.2109 41.2114 16.2109ZM41.2114 31.3244C37.7247 31.3244 34.8884 28.4869 34.8884 25C34.8884 21.513 37.7247 18.6766 41.2114 18.6766C44.6981 18.6766 47.5345 21.513 47.5345 25C47.5345 28.4869 44.6982 31.3244 41.2114 31.3244Z" fill="url(#paint1_radial)"/>
<path d="M41.2103 16.2109C40.7918 16.2109 40.3804 16.2408 39.9775 16.2975C44.2478 16.897 48.307 20.5645 48.307 25C48.307 29.4355 44.2477 33.103 39.9775 33.7025C40.3804 33.7591 40.7918 33.7891 41.2103 33.7891C46.0641 33.7891 49.9998 29.8541 49.9998 25C49.9998 20.1459 46.0641 16.2109 41.2103 16.2109Z" fill="#A6A6A6"/>
<path d="M30.4682 16.2109C25.6145 16.2109 21.6797 20.1459 21.6797 25C21.6797 29.8541 25.6144 33.7891 30.4682 33.7891C35.322 33.7891 39.2576 29.8541 39.2576 25C39.2576 20.1459 35.3219 16.2109 30.4682 16.2109ZM30.4682 31.3244C26.9814 31.3244 24.1452 28.4869 24.1452 25C24.1452 21.513 26.9814 18.6766 30.4682 18.6766C33.9549 18.6766 36.7922 21.513 36.7922 25C36.7922 28.4869 33.9549 31.3244 30.4682 31.3244Z" fill="#CCCCCC"/>
<path d="M30.4682 16.2109C25.6145 16.2109 21.6797 20.1459 21.6797 25C21.6797 29.8541 25.6144 33.7891 30.4682 33.7891C35.322 33.7891 39.2576 29.8541 39.2576 25C39.2576 20.1459 35.3219 16.2109 30.4682 16.2109ZM30.4682 31.3244C26.9814 31.3244 24.1452 28.4869 24.1452 25C24.1452 21.513 26.9814 18.6766 30.4682 18.6766C33.9549 18.6766 36.7922 21.513 36.7922 25C36.7922 28.4869 33.9549 31.3244 30.4682 31.3244Z" fill="url(#paint2_radial)"/>
<path d="M30.4682 16.2109C25.6145 16.2109 21.6797 20.1459 21.6797 25C21.6797 29.8541 25.6144 33.7891 30.4682 33.7891C35.322 33.7891 39.2576 29.8541 39.2576 25C39.2576 20.1459 35.3219 16.2109 30.4682 16.2109ZM30.4682 31.3244C26.9814 31.3244 24.1452 28.4869 24.1452 25C24.1452 21.513 26.9814 18.6766 30.4682 18.6766C33.9549 18.6766 36.7922 21.513 36.7922 25C36.7922 28.4869 33.9549 31.3244 30.4682 31.3244Z" fill="url(#paint3_radial)"/>
<path d="M30.4686 16.2109C30.0501 16.2109 29.6387 16.2408 29.2358 16.2975C33.506 16.897 37.5652 20.5645 37.5652 25C37.5652 29.4355 33.506 33.103 29.2358 33.7025C29.6387 33.7591 30.0501 33.7891 30.4686 33.7891C35.3223 33.7891 39.258 29.8541 39.258 25C39.258 20.1459 35.3223 16.2109 30.4686 16.2109Z" fill="#A6A6A6"/>
<path d="M19.5317 16.2109C14.6779 16.2109 10.7422 20.1459 10.7422 25C10.7422 29.8541 14.6779 33.7891 19.5317 33.7891C24.3855 33.7891 28.3203 29.8541 28.3203 25C28.3203 20.1459 24.3855 16.2109 19.5317 16.2109ZM19.5317 31.3244C16.045 31.3244 13.2087 28.4869 13.2087 25C13.2087 21.513 16.045 18.6766 19.5317 18.6766C23.0185 18.6766 25.8548 21.513 25.8548 25C25.8548 28.4869 23.0186 31.3244 19.5317 31.3244Z" fill="#CCCCCC"/>
<path d="M19.5317 16.2109C14.6779 16.2109 10.7422 20.1459 10.7422 25C10.7422 29.8541 14.6779 33.7891 19.5317 33.7891C24.3855 33.7891 28.3203 29.8541 28.3203 25C28.3203 20.1459 24.3855 16.2109 19.5317 16.2109ZM19.5317 31.3244C16.045 31.3244 13.2087 28.4869 13.2087 25C13.2087 21.513 16.045 18.6766 19.5317 18.6766C23.0185 18.6766 25.8548 21.513 25.8548 25C25.8548 28.4869 23.0186 31.3244 19.5317 31.3244Z" fill="url(#paint4_radial)"/>
<path d="M19.5317 16.2109C14.6779 16.2109 10.7422 20.1459 10.7422 25C10.7422 29.8541 14.6779 33.7891 19.5317 33.7891C24.3855 33.7891 28.3203 29.8541 28.3203 25C28.3203 20.1459 24.3855 16.2109 19.5317 16.2109ZM19.5317 31.3244C16.045 31.3244 13.2087 28.4869 13.2087 25C13.2087 21.513 16.045 18.6766 19.5317 18.6766C23.0185 18.6766 25.8548 21.513 25.8548 25C25.8548 28.4869 23.0186 31.3244 19.5317 31.3244Z" fill="url(#paint5_radial)"/>
<path d="M19.5306 16.2109C19.1121 16.2109 18.7007 16.2408 18.2979 16.2975C22.5681 16.897 26.6273 20.5645 26.6273 25C26.6273 29.4355 22.568 33.103 18.2979 33.7025C18.7007 33.7591 19.1121 33.7891 19.5306 33.7891C24.3844 33.7891 28.3201 29.8541 28.3201 25C28.3201 20.1459 24.3844 16.2109 19.5306 16.2109Z" fill="#A6A6A6"/>
<path d="M8.78857 16.2109C3.93477 16.2109 0 20.1459 0 25C0 29.8541 3.93477 33.7891 8.78857 33.7891C13.6424 33.7891 17.5781 29.8541 17.5781 25C17.5781 20.1459 13.6424 16.2109 8.78857 16.2109ZM8.78857 31.3244C5.30186 31.3244 2.46553 28.4869 2.46553 25C2.46553 21.513 5.30186 18.6766 8.78857 18.6766C12.2753 18.6766 15.1127 21.513 15.1127 25C15.1126 28.4869 12.2753 31.3244 8.78857 31.3244Z" fill="#CCCCCC"/>
<path d="M8.78857 16.2109C3.93477 16.2109 0 20.1459 0 25C0 29.8541 3.93477 33.7891 8.78857 33.7891C13.6424 33.7891 17.5781 29.8541 17.5781 25C17.5781 20.1459 13.6424 16.2109 8.78857 16.2109ZM8.78857 31.3244C5.30186 31.3244 2.46553 28.4869 2.46553 25C2.46553 21.513 5.30186 18.6766 8.78857 18.6766C12.2753 18.6766 15.1127 21.513 15.1127 25C15.1126 28.4869 12.2753 31.3244 8.78857 31.3244Z" fill="url(#paint6_radial)"/>
<path d="M8.78838 16.2109C8.36992 16.2109 7.9585 16.2408 7.55566 16.2975C11.8259 16.897 15.8852 20.5645 15.8852 25C15.8852 29.4355 11.8258 33.103 7.55566 33.7025C7.9585 33.7592 8.36992 33.7891 8.78838 33.7891C13.6422 33.7891 17.5779 29.8541 17.5779 25C17.5779 20.1459 13.6422 16.2109 8.78838 16.2109Z" fill="#A6A6A6"/>
</g>
<defs>
<radialGradient id="paint0_radial" cx="0" cy="0" r="1" gradientUnits="userSpaceOnUse" gradientTransform="translate(34.9266 23.2553) scale(18.3578 18.327)">
<stop stop-color="white"/>
<stop offset="0.041" stop-color="#FAFAF8"/>
<stop offset="0.225" stop-color="#F8F8F5"/>
<stop offset="0.287" stop-color="#DADAD7"/>
<stop offset="0.413" stop-color="#A3A4A1"/>
<stop offset="0.52" stop-color="#7E7F7D"/>
<stop offset="0.6" stop-color="#686866"/>
<stop offset="0.646" stop-color="#5F5F5D"/>
<stop offset="0.739" stop-color="#565754"/>
<stop offset="0.899" stop-color="#3B3A37"/>
<stop offset="1"/>
</radialGradient>
<radialGradient id="paint1_radial" cx="0" cy="0" r="1" gradientUnits="userSpaceOnUse" gradientTransform="translate(24.9219 25) rotate(-3.52004) scale(28.4161 28.3684)">
<stop stop-color="white"/>
<stop offset="0.041" stop-color="#FAFAF8"/>
<stop offset="0.225" stop-color="#F8F8F5"/>
<stop offset="0.287" stop-color="#DADAD7"/>
<stop offset="0.413" stop-color="#A3A4A1"/>
<stop offset="0.52" stop-color="#7E7F7D"/>
<stop offset="0.6" stop-color="#686866"/>
<stop offset="0.646" stop-color="#5F5F5D"/>
<stop offset="0.739" stop-color="#565754"/>
<stop offset="0.899" stop-color="#3B3A37"/>
<stop offset="1"/>
</radialGradient>
<radialGradient id="paint2_radial" cx="0" cy="0" r="1" gradientUnits="userSpaceOnUse" gradientTransform="translate(24.1844 23.2553) scale(18.3576 18.327)">
<stop stop-color="white"/>
<stop offset="0.041" stop-color="#FAFAF8"/>
<stop offset="0.225" stop-color="#F8F8F5"/>
<stop offset="0.287" stop-color="#DADAD7"/>
<stop offset="0.413" stop-color="#A3A4A1"/>
<stop offset="0.52" stop-color="#7E7F7D"/>
<stop offset="0.6" stop-color="#686866"/>
<stop offset="0.646" stop-color="#5F5F5D"/>
<stop offset="0.739" stop-color="#565754"/>
<stop offset="0.899" stop-color="#3B3A37"/>
<stop offset="1"/>
</radialGradient>
<radialGradient id="paint3_radial" cx="0" cy="0" r="1" gradientUnits="userSpaceOnUse" gradientTransform="translate(14.1798 25) rotate(-3.52007) scale(28.4158 28.3684)">
<stop stop-color="white"/>
<stop offset="0.041" stop-color="#FAFAF8"/>
<stop offset="0.225" stop-color="#F8F8F5"/>
<stop offset="0.287" stop-color="#DADAD7"/>
<stop offset="0.413" stop-color="#A3A4A1"/>
<stop offset="0.52" stop-color="#7E7F7D"/>
<stop offset="0.6" stop-color="#686866"/>
<stop offset="0.646" stop-color="#5F5F5D"/>
<stop offset="0.739" stop-color="#565754"/>
<stop offset="0.899" stop-color="#3B3A37"/>
<stop offset="1"/>
</radialGradient>
<radialGradient id="paint4_radial" cx="0" cy="0" r="1" gradientUnits="userSpaceOnUse" gradientTransform="translate(13.2469 23.2553) scale(18.3578 18.327)">
<stop stop-color="white"/>
<stop offset="0.041" stop-color="#FAFAF8"/>
<stop offset="0.225" stop-color="#F8F8F5"/>
<stop offset="0.287" stop-color="#DADAD7"/>
<stop offset="0.413" stop-color="#A3A4A1"/>
<stop offset="0.52" stop-color="#7E7F7D"/>
<stop offset="0.6" stop-color="#686866"/>
<stop offset="0.646" stop-color="#5F5F5D"/>
<stop offset="0.739" stop-color="#565754"/>
<stop offset="0.899" stop-color="#3B3A37"/>
<stop offset="1"/>
</radialGradient>
<radialGradient id="paint5_radial" cx="0" cy="0" r="1" gradientUnits="userSpaceOnUse" gradientTransform="translate(3.24219 25) rotate(-3.52004) scale(28.4161 28.3684)">
<stop stop-color="white"/>
<stop offset="0.041" stop-color="#FAFAF8"/>
<stop offset="0.225" stop-color="#F8F8F5"/>
<stop offset="0.287" stop-color="#DADAD7"/>
<stop offset="0.413" stop-color="#A3A4A1"/>
<stop offset="0.52" stop-color="#7E7F7D"/>
<stop offset="0.6" stop-color="#686866"/>
<stop offset="0.646" stop-color="#5F5F5D"/>
<stop offset="0.739" stop-color="#565754"/>
<stop offset="0.899" stop-color="#3B3A37"/>
<stop offset="1"/>
</radialGradient>
<radialGradient id="paint6_radial" cx="0" cy="0" r="1" gradientUnits="userSpaceOnUse" gradientTransform="translate(-7.5 25) rotate(-3.52004) scale(28.4161 28.3684)">
<stop stop-color="white"/>
<stop offset="0.041" stop-color="#FAFAF8"/>
<stop offset="0.225" stop-color="#F8F8F5"/>
<stop offset="0.287" stop-color="#DADAD7"/>
<stop offset="0.413" stop-color="#A3A4A1"/>
<stop offset="0.52" stop-color="#7E7F7D"/>
<stop offset="0.6" stop-color="#686866"/>
<stop offset="0.646" stop-color="#5F5F5D"/>
<stop offset="0.739" stop-color="#565754"/>
<stop offset="0.899" stop-color="#3B3A37"/>
<stop offset="1"/>
</radialGradient>
<clipPath id="clip0">
<rect width="50" height="50" fill="white"/>
</clipPath>
</defs>
</svg>
