<svg width="50" height="50" viewBox="0 0 50 50" fill="none" xmlns="http://www.w3.org/2000/svg">
<g clip-path="url(#clip0)">
<path fill-rule="evenodd" clip-rule="evenodd" d="M25.0001 -2.18557e-06C38.7696 -3.38934e-06 50 11.2304 50 24.9999C50 38.7696 38.7696 49.9999 25.0001 49.9999C11.2305 49.9999 3.38934e-06 38.7696 2.18556e-06 24.9999C9.81794e-07 11.2304 11.2305 -9.81804e-07 25.0001 -2.18557e-06Z" fill="black"/>
<path d="M10.4754 17.5023L4.57617 12.4284L6.78517 9.86008C7.23472 9.33749 7.6555 8.9704 8.045 8.75655C8.43699 8.54235 8.83354 8.4535 9.23566 8.48888C9.63619 8.52312 9.97404 8.65565 10.246 8.88953C10.4973 9.10566 10.6663 9.3897 10.7518 9.74041C10.8388 10.0895 10.8116 10.4849 10.6736 10.9232C11.1342 10.5988 11.5856 10.4353 12.0287 10.4285C12.4732 10.4228 12.8672 10.5676 13.2106 10.8629C13.482 11.0942 13.6874 11.3932 13.8059 11.7295C13.9269 12.0692 13.9656 12.3937 13.9235 12.7039C13.8814 13.0142 13.7623 13.347 13.5706 13.7032C13.3788 14.0594 13.0953 14.4559 12.7198 14.8925L10.4754 17.5023ZM7.83512 13.6542L9.10803 12.1743C9.45202 11.7742 9.67669 11.4658 9.78214 11.2516C9.92023 10.9715 9.97222 10.7138 9.93491 10.4794C9.89748 10.245 9.77656 10.0384 9.57044 9.8611C9.37547 9.69332 9.15581 9.59867 8.91419 9.57945C8.67008 9.56068 8.43404 9.62927 8.20653 9.78284C7.97765 9.938 7.65141 10.2615 7.22778 10.754L6.05213 12.121L7.83512 13.6542ZM10.5587 15.9968L12.0236 14.2938C12.2756 14.0006 12.4428 13.7868 12.5263 13.6533C12.6729 13.4164 12.7686 13.1965 12.8137 12.9915C12.8602 12.7874 12.8491 12.5782 12.7843 12.3646C12.7169 12.1513 12.5918 11.9634 12.4036 11.8015C12.1839 11.6125 11.9368 11.5135 11.6609 11.5037C11.3865 11.495 11.1162 11.5785 10.8502 11.7545C10.5871 11.93 10.2663 12.2362 9.89214 12.6712L8.53152 14.2532L10.5587 15.9968ZM20.2837 8.78612L20.2837 2.11328L22.0429 2.11328L24.1311 6.83785C24.3243 7.27762 24.4661 7.60694 24.5524 7.82603C24.6531 7.58362 24.8093 7.22621 25.0229 6.7556L27.1357 2.11328L28.7079 2.11328L28.7079 8.78612L27.5817 8.78612L27.5817 3.20077L25.0168 8.78612L23.9625 8.78612L21.4099 3.1059L21.4099 8.78612L20.2837 8.78612ZM36.2417 12.6826L40.3247 7.14635L40.8819 7.83399L38.1167 11.3525C37.8321 11.7183 37.5368 12.0755 37.2312 12.4239C37.889 12.1057 38.2681 11.9236 38.3728 11.8777L42.6461 10.0111L43.3018 10.8203L41.2713 13.6672C40.7693 14.3748 40.2649 15.0005 39.76 15.5445C40.138 15.3437 40.5826 15.1242 41.0894 14.8853L45.0564 12.9855L45.6031 13.66L39.3049 16.4625L38.7812 15.816L41.8568 11.5555C42.1142 11.1984 42.2734 10.9815 42.3347 10.9045C42.0542 11.0436 41.8119 11.1579 41.6072 11.2477L36.796 13.3664L36.2417 12.6826Z" fill="white"/>
<path fill-rule="evenodd" clip-rule="evenodd" d="M39.7679 25.248C39.7679 33.2457 33.2452 39.7684 25.2476 39.7684L25.2476 25.248L39.7679 25.248Z" fill="#00ACEC"/>
<path fill-rule="evenodd" clip-rule="evenodd" d="M39.7679 24.7528C39.7679 16.7553 33.2452 10.2324 25.2476 10.2324L25.2476 24.7528L39.7679 24.7528Z" fill="white"/>
<path fill-rule="evenodd" clip-rule="evenodd" d="M10.2324 24.7528C10.2324 16.7553 16.7551 10.2324 24.7527 10.2324L24.7527 24.7528L10.2324 24.7528Z" fill="#00ACEC"/>
<path fill-rule="evenodd" clip-rule="evenodd" d="M10.2324 25.248C10.2324 33.2457 16.7551 39.7684 24.7527 39.7684L24.7527 25.248L10.2324 25.248Z" fill="white"/>
</g>
<defs>
<clipPath id="clip0">
<rect width="50" height="50" fill="white"/>
</clipPath>
</defs>
</svg>
