<svg width="50" height="50" viewBox="0 0 50 50" fill="none" xmlns="http://www.w3.org/2000/svg">
<g clip-path="url(#clip0)">
<path d="M24.9994 16C11.1296 16 0.0117188 20.2149 0.0117188 25.4995C0.0117188 30.7528 11.2214 35 24.9995 35C38.7785 35 49.9891 30.7381 49.9891 25.4995C49.9887 20.2619 38.7785 16 24.9994 16ZM49.8361 24.7659C49.8451 24.8123 49.8513 24.8592 49.8593 24.9042C49.8527 24.8594 49.8436 24.8129 49.8361 24.7659Z" fill="#C9C9CA"/>
<path d="M24.9997 16.3789C11.4058 16.3789 0.394043 20.4528 0.394043 25.4942C0.394043 30.5332 11.4058 34.6097 24.9997 34.6097C38.5953 34.6097 49.6042 30.5332 49.6042 25.4942C49.6042 20.4531 38.5951 16.3789 24.9997 16.3789Z" fill="url(#paint0_radial)"/>
<path d="M25.1115 18.2914C36.6689 18.2914 46.2119 21.1541 47.6698 24.8594V24.8587C46.696 20.9607 36.9186 17.8984 24.9978 17.8984C12.4324 17.8984 2.24707 21.3 2.24707 25.498C2.24707 25.8402 2.31526 26.1762 2.44542 26.5065C2.38901 26.2912 2.36028 26.0693 2.35997 25.8465C2.36032 21.6744 12.546 18.2914 25.1115 18.2914Z" fill="url(#paint1_linear)"/>
<path d="M48.4249 24.5469C48.5244 24.8538 48.5753 25.1747 48.5756 25.4978C48.5756 30.0936 38.0198 33.8186 24.9974 33.8186C13.4086 33.8186 3.77381 30.8676 1.7915 26.9818C3.29563 31.0205 13.1481 34.1405 25.0915 34.1538H25.2358C38.2242 34.1409 48.7422 30.4534 48.7422 25.9035C48.7425 25.442 48.6339 24.9876 48.4249 24.5469Z" fill="url(#paint2_linear)"/>
<path d="M29.5351 26.7779C29.4832 26.6442 29.4735 26.494 29.5034 26.3447C29.5139 26.2917 29.4464 26.244 29.3912 26.3016C28.8631 26.8598 28.8237 27.5818 29.1697 27.9059C29.2931 28.0225 29.4353 28.0748 29.5867 28.0846C29.3615 27.7948 29.2549 27.2265 29.5351 26.7779Z" fill="url(#paint3_linear)"/>
<path d="M34.8845 27.8534H34.8852C34.9121 27.8005 34.9391 27.7447 34.9679 27.6848C34.9898 27.6388 34.979 27.6259 34.9601 27.6182C34.9059 27.5984 34.8498 27.5562 34.8421 27.5126C34.8384 27.5047 34.8381 27.4972 34.8374 27.4883L34.8381 27.493C34.845 27.5772 34.8669 27.7358 34.8845 27.8534Z" fill="url(#paint4_linear)"/>
<path d="M35.4844 25.668C35.6606 25.8393 35.7682 26.0471 35.7882 26.2382C35.796 26.3287 35.864 26.3387 35.9196 26.2597C35.9341 26.2382 35.9506 26.2114 35.9702 26.1813C35.955 26.1594 35.9382 26.1384 35.9227 26.1178C35.7862 25.9585 35.6398 25.8083 35.4844 25.668Z" fill="url(#paint5_linear)"/>
<path d="M28.1699 25.3145C28.3115 25.5107 28.3776 25.7909 28.3678 26.1495C28.3653 26.2424 28.4321 26.2363 28.4756 26.1729C28.5005 26.1378 28.5224 26.1066 28.5454 26.0746V26.0718C28.4422 25.7503 28.2837 25.4345 28.1699 25.3145Z" fill="url(#paint6_linear)"/>
<path d="M34.7451 26.2645C34.3097 26.0526 33.6454 26.4413 33.0443 27.1913C32.5516 27.8046 32.2861 28.4282 32.277 29.0362C32.2732 29.2529 32.3541 29.5207 32.5423 29.6183C32.6008 29.6513 32.6645 29.6736 32.7305 29.6843C32.7093 29.6046 32.6983 29.5225 32.6977 29.44C32.6903 28.8125 32.8826 28.1859 33.3765 27.5718C33.9733 26.8255 34.6011 26.4535 35.037 26.659C35.0146 26.4948 34.9303 26.3533 34.7451 26.2645Z" fill="url(#paint7_linear)"/>
<path d="M21.7229 27.5077C22.1817 26.8769 22.6986 26.6384 23.2879 26.3802C23.3656 26.3457 23.375 26.3013 23.3601 26.2316C23.3349 26.1126 23.2531 25.8172 23.228 25.7461C23.2467 25.811 23.2301 25.8607 23.1535 25.8896C22.4847 26.1471 21.8142 26.5468 21.3504 27.1767C20.8242 27.8915 20.6831 28.7513 21.0346 29.2466C21.1183 29.3625 21.2181 29.4484 21.3283 29.5044C21.1389 28.9128 21.2772 28.1196 21.7229 27.5077Z" fill="url(#paint8_linear)"/>
<path d="M25.0894 31.2478C25.5415 31.2478 26.0972 31.2478 26.4732 31.2455C26.5292 31.2424 26.569 31.2104 26.5984 31.168C27.1603 30.2754 27.7602 29.307 28.3343 28.4136C28.4602 28.8643 28.5249 29.074 28.7592 29.2863C28.9976 29.5021 29.218 29.5588 29.5424 29.5616C29.8371 29.5653 30.1274 29.4459 30.4731 29.3005C30.5896 29.2501 30.7015 29.1892 30.8074 29.1186C30.8074 28.9531 30.824 28.7866 30.853 28.6277C30.8554 28.6105 30.8389 28.5005 30.7462 28.5657C30.5539 28.7074 30.3436 28.8221 30.1211 28.9065C29.8027 29.0269 29.6544 29.0721 29.3598 29.0693C28.9891 29.0663 28.6551 28.9065 28.4203 28.5348C28.2889 28.334 28.2346 28.0279 28.2221 27.8032C28.2204 27.7785 28.1886 27.7347 28.1538 27.7914C27.5307 28.7569 26.949 29.6898 26.3306 30.6701C26.2983 30.7163 26.2704 30.7464 26.2063 30.7485C25.8243 30.7485 25.4059 30.7474 24.9852 30.7499C24.9411 30.7499 24.9095 30.7294 24.9004 30.6982C24.9334 30.8479 24.9874 31.119 25.0016 31.1824C25.0109 31.2252 25.0425 31.2478 25.0894 31.2478Z" fill="url(#paint9_linear)"/>
<path d="M31.1385 30.7142C31.2427 30.9173 31.4766 31.1451 31.6185 31.2167C32.4289 31.6216 33.5858 31.1626 34.329 30.4384C34.3364 30.4284 34.3382 30.4277 34.3487 30.416C34.3827 30.546 34.4245 30.7041 34.4305 30.7259C34.4811 30.8941 34.5607 31.0469 34.6302 31.128C35.1386 31.7105 36.2179 31.4453 37.3414 30.5639C37.9694 30.0717 38.4348 29.5774 39.0052 28.9048C39.0282 28.8768 39.0261 28.8355 39.0133 28.7725C38.9807 28.6262 38.9294 28.3615 38.9008 28.2285C38.8998 28.2507 38.8922 28.2721 38.8788 28.2898C38.2834 29.0258 37.6252 29.7215 36.9958 30.2136C36.017 30.9825 35.0399 31.1777 34.557 30.6848C34.3763 30.5016 34.2776 30.2397 34.2656 30.0176C34.2598 29.8972 34.1995 29.8916 34.1426 29.9481C33.5656 30.5276 32.5628 31.1693 31.6488 30.7121C31.1775 30.4762 30.9316 30.0335 30.8433 29.5465C30.844 29.5515 30.8457 29.5577 30.8469 29.5631C30.9033 29.9082 30.9774 30.4065 31.1385 30.7142Z" fill="url(#paint10_linear)"/>
<path d="M30.7352 27.5715C31.0359 27.4065 31.3001 27.0564 31.2673 26.4885C31.2498 26.2058 31.1692 25.9146 31.0387 25.6797C31.1274 25.851 31.1645 26.0506 31.1331 26.2608C31.0755 26.6273 30.8795 26.9504 30.5465 27.1177C30.2643 27.2579 29.9346 27.2332 29.7036 27.0244C29.6342 26.9597 29.5792 26.8808 29.542 26.793C29.6014 27.0699 29.6533 27.2735 29.7245 27.3825C29.9421 27.7154 30.3192 27.7994 30.7352 27.5715Z" fill="url(#paint11_linear)"/>
<path d="M39.6794 22.7757C39.4899 23.1084 35.8296 28.7584 35.5983 29.3428C35.5251 29.5278 35.5165 29.6692 35.5909 29.7711C35.6665 29.8737 35.7766 29.9127 35.9018 29.9106C35.9145 29.8392 35.9413 29.7588 35.9746 29.6739C36.2059 29.0874 39.6338 23.8061 39.822 23.4718C39.8375 23.4432 39.832 23.4112 39.827 23.3899C39.816 23.3368 39.701 22.7753 39.6898 22.7227C39.6928 22.741 39.6892 22.7599 39.6794 22.7757Z" fill="url(#paint12_linear)"/>
<path d="M24.4878 25.4043C24.4985 25.416 24.507 25.4278 24.5163 25.4395C24.7366 25.7718 24.8567 26.2397 24.8688 26.7229C24.8819 26.8248 24.9249 26.8272 24.9736 26.7749C25.0181 26.7291 25.0616 26.6802 25.1044 26.6331C25.04 26.3736 24.9403 26.1401 24.8375 25.9148C24.7992 25.8336 24.6321 25.5424 24.4878 25.4043Z" fill="url(#paint13_linear)"/>
<path d="M18.5812 30.6847C18.6478 30.7188 18.7167 30.6878 18.7498 30.6689C18.973 30.553 19.4077 30.2142 19.595 29.9777C19.6518 29.924 19.7064 29.9606 19.7245 30.0178C19.8027 30.2692 19.9173 30.4629 20.0458 30.6691C20.1856 30.8987 20.4666 31.1368 20.8307 31.2379C21.3018 31.3718 21.8102 31.3954 22.4785 31.1368C23.0143 30.9288 23.5759 30.5053 24.0076 30.0294C24.5258 29.459 24.7133 29.0935 24.9096 28.8443C25.2457 28.4225 25.769 27.6753 26.5023 27.041C26.7588 26.8185 27.0397 26.6743 27.2159 26.7443C27.3219 26.4674 27.2717 26.3146 27.159 26.2411C26.9874 26.1279 26.6442 26.2978 26.3545 26.5219C25.5649 27.1282 24.9015 28.0726 24.5655 28.4951C24.3674 28.7436 24.1806 29.1103 23.663 29.6802C22.8494 30.5756 21.7707 31.0904 20.7301 30.7349C20.1621 30.5413 19.7511 30.0782 19.5947 29.5094C19.5633 29.3996 19.5027 29.3688 19.4436 29.4413C19.2757 29.6543 18.932 29.9671 18.6449 30.164C18.6135 30.1869 18.5358 30.2334 18.4691 30.1998C18.4091 30.1722 18.1959 29.8669 18.1541 29.7791C18.1488 29.77 18.1452 29.7601 18.1436 29.7497V29.7535C18.2185 30.1291 18.2278 30.1729 18.3291 30.3465C18.4439 30.538 18.5558 30.6738 18.5812 30.6847Z" fill="url(#paint14_linear)"/>
<path d="M12.306 27.3104C12.5687 26.7732 12.9385 26.5168 13.3021 26.2837C13.4585 26.1832 13.5279 26.0859 13.4348 25.8243C13.4084 25.7495 13.3935 25.6151 13.3642 25.4961C13.3735 25.6123 13.3169 25.7122 13.2156 25.7658C12.7716 25.9954 12.2371 26.3891 11.9733 26.926C11.7589 27.3636 11.7154 27.8931 12.042 28.3961C12.0695 28.4362 12.0992 28.4768 12.132 28.514H12.1323C12.0274 28.0964 12.1403 27.6466 12.306 27.3104Z" fill="url(#paint15_linear)"/>
<path d="M16.852 20.7879C18.4663 20.2481 20.2658 20.5894 21.7112 20.903C21.9134 20.7751 22.0903 20.6867 22.2676 20.5882C22.3558 20.5413 22.2571 20.4854 22.2296 20.4854C20.3637 20.1303 18.4245 19.6696 16.572 20.3652C15.288 20.8511 14.7254 21.8832 14.997 22.5723C15.0488 22.7037 15.1314 22.8059 15.2393 22.8786C15.1487 22.243 15.6186 21.2016 16.852 20.7879Z" fill="url(#paint16_linear)"/>
<path d="M11.6012 30.6812C12.1303 31.0593 12.6513 31.1846 13.2591 31.1955C14.4937 31.2173 15.6215 30.7005 16.8175 29.4701C17.9657 28.2886 18.9595 26.6376 19.9395 25.0015C19.972 24.9439 20.0067 24.9182 20.1708 24.8965C20.7858 24.8197 21.3366 24.7839 21.8797 24.7323C22.0416 24.7169 22.1647 24.7019 22.2241 24.7614C22.4202 24.9604 22.6484 25.1422 22.7993 25.2311C22.8996 25.2324 22.9839 25.2548 23.0427 25.3081C23.1061 25.2997 23.1639 25.264 23.2014 25.2271C23.2718 25.1573 23.2746 25.0755 23.263 25.0062C23.2387 24.8702 23.2024 24.6023 23.1594 24.5246C23.1891 24.5837 23.1699 24.6674 23.1114 24.7344C23.0684 24.7841 23.0013 24.8312 22.9158 24.8302C22.8452 24.8284 22.8035 24.8039 22.7147 24.7545C22.5316 24.6553 22.3054 24.491 22.1533 24.2969C22.1021 24.2317 22.0756 24.23 21.9462 24.2373C21.3654 24.2717 20.4593 24.3599 19.8449 24.4381C19.6968 24.4568 19.6747 24.485 19.6438 24.5365C18.6648 26.1736 17.6197 27.9384 16.4721 29.12C15.2414 30.3872 14.2177 30.7199 13.1319 30.7285C11.8787 30.7374 10.7637 30.0175 10.481 28.7526V28.7533C10.6337 29.4601 11.0827 30.3104 11.6012 30.6812Z" fill="url(#paint17_linear)"/>
<path d="M16.2308 25.1814C16.2034 25.1391 16.1883 25.0898 16.1873 25.0391C16.1746 25.2513 16.259 25.5632 16.3266 25.6673C16.401 25.7835 16.6104 25.8406 16.7762 25.7152C17.1508 25.4356 17.489 25.2726 17.8674 25.2C17.9646 25.065 18.0695 24.9156 18.1897 24.7475C18.2002 24.7344 18.203 24.7169 18.1985 24.7082C18.1917 24.6929 18.1796 24.6886 18.1553 24.6875C17.6006 24.7031 17.1159 24.8713 16.6464 25.2271C16.5112 25.3272 16.3161 25.313 16.2308 25.1814Z" fill="url(#paint18_linear)"/>
<path d="M31.329 21.3473C30.553 21.7791 29.7421 21.9095 28.8942 21.917C26.8442 21.934 24.9344 21.1241 22.9588 20.689C22.9616 20.7764 22.984 20.8812 22.9115 20.9365C21.8174 21.7546 20.8281 22.5861 20.1652 23.753C20.1432 23.7803 20.1553 23.8055 20.1938 23.8027C20.3685 23.7947 20.5375 23.7866 20.7041 23.7773C21.3078 22.8186 21.9536 22.269 22.9397 21.5311C23.0136 21.4744 23.0873 21.435 23.0631 21.2216C25.0449 21.6678 26.5519 22.4067 29.1112 22.4135C29.8749 22.4162 30.9518 22.158 31.5311 21.8046C32.1969 21.3986 32.3741 21.1 32.3979 20.7844C32.4056 20.6859 32.3799 20.5396 32.3642 20.4641C32.3416 20.3572 32.3268 20.2207 32.2967 20.1191C32.3069 20.1604 32.3116 20.2072 32.3078 20.2585C32.2876 20.6215 32.0107 20.9703 31.329 21.3473Z" fill="url(#paint19_linear)"/>
<path d="M22.7663 22.7013C22.7419 22.7247 22.7145 22.7487 22.6874 22.7739C22.4918 22.9792 22.4322 23.251 22.4609 23.4567C22.4769 23.5403 22.5087 23.5566 22.5463 23.5494C22.5851 23.5407 22.623 23.5287 22.6598 23.5134C22.6736 23.4001 22.7204 23.2902 22.8333 23.1894C22.9149 23.1162 23.0173 23.0823 23.1048 23.097C23.1802 22.9454 23.2018 22.763 23.1098 22.6817C23.0214 22.6043 22.8804 22.6188 22.7663 22.7013Z" fill="url(#paint20_linear)"/>
<path d="M23.5545 23.4126C23.3665 23.7772 23.0565 23.9714 22.759 24.0658C22.759 24.0658 22.6967 24.0801 22.706 24.1379C22.7133 24.2026 22.9242 24.3381 23.0559 24.4332C23.0751 24.4279 23.1038 24.4172 23.1038 24.4172C23.2564 24.3558 23.5108 24.1984 23.6579 23.872C23.7522 23.6615 23.8034 23.4962 23.7625 23.1348C23.7328 22.8828 23.6826 22.6549 23.616 22.5371C23.7446 22.8012 23.6933 23.1402 23.5545 23.4126Z" fill="url(#paint21_linear)"/>
<path d="M18.0468 22.111C17.5048 23.403 16.469 24.4278 15.2074 24.4702C14.5019 24.4942 13.9619 24.1569 13.6748 23.6425C13.8845 24.0265 14.2395 24.3632 14.5557 24.565C14.829 24.7376 15.1662 24.8337 15.5518 24.8206C16.8664 24.7751 17.8625 23.6766 18.1929 22.7486C18.2811 22.4983 18.2122 22.2302 18.1715 22.0489C18.1549 21.9796 18.1323 21.8215 18.0822 21.709H18.0817C18.119 21.8019 18.119 21.9388 18.0468 22.111Z" fill="url(#paint22_linear)"/>
<path d="M24.9877 16C11.1179 16 0 20.2149 0 25.4995C0 30.7528 11.2097 35 24.9878 35C38.7668 35 49.9774 30.7381 49.9774 25.4995C49.977 20.2619 38.7668 16 24.9877 16ZM0.171249 25.6043C0.166242 24.4926 0.649606 23.388 1.66588 22.3482C5.24311 18.6896 14.6162 16.2169 24.9462 16.1741C38.6306 16.1164 49.7818 20.2533 49.8056 25.3959C49.8105 26.508 49.2984 27.5978 48.282 28.6368C44.7042 32.296 35.3599 34.7844 25.0308 34.826C11.3466 34.884 0.194381 30.7476 0.171249 25.6043ZM49.8244 24.7659C49.8334 24.8123 49.8396 24.8592 49.8476 24.9042C49.841 24.8594 49.8319 24.8129 49.8244 24.7659Z" fill="#4B4B4B"/>
<path d="M0.0869141 25.5004C0.0869141 25.7486 0.115743 25.9951 0.165806 26.2378C0.127184 26.0294 0.106906 25.818 0.105213 25.606C0.100379 24.4793 0.597208 23.342 1.62194 22.2938C5.2192 18.615 14.6018 16.1396 24.9575 16.0955C26.3924 16.089 27.7985 16.1296 29.1688 16.2127C27.7808 16.1244 26.3903 16.0802 24.9995 16.0801C11.1851 16.0801 0.0869141 20.28 0.0869141 25.5004Z" fill="url(#paint23_linear)"/>
<path d="M48.3491 28.6962C44.7641 32.361 35.3841 34.8623 25.0425 34.9059C23.6114 34.9133 22.1805 34.8739 20.752 34.7876C22.132 34.8769 23.5522 34.922 24.9993 34.922C38.7352 34.922 49.9105 30.6701 49.9105 25.5036C49.9105 25.3061 49.8926 25.1106 49.8613 24.916C49.8839 25.0758 49.8938 25.237 49.8953 25.3989C49.9014 26.5257 49.3738 27.648 48.3491 28.6962Z" fill="url(#paint24_linear)"/>
<path d="M24.9982 17.1777C11.9751 17.1777 1.41797 20.9021 1.41797 25.4986C1.41797 30.0944 11.9751 33.8195 24.9982 33.8195C38.0201 33.8195 48.5759 30.0944 48.5759 25.4986C48.5759 20.9021 38.02 17.1777 24.9982 17.1777ZM24.9982 33.0987C12.4328 33.0987 2.24745 29.6969 2.24745 25.4984C2.24745 21.3001 12.4326 17.8987 24.9982 17.8987C37.5644 17.8987 47.7485 21.3003 47.7485 25.4984C47.7485 29.6971 37.5644 33.0987 24.9982 33.0987Z" fill="white"/>
<path d="M39.6794 22.7741C39.712 22.7162 39.6783 22.6738 39.6062 22.6738C39.2285 22.6738 38.7349 22.6751 38.3431 22.6751C38.2493 22.6751 38.2018 22.6856 38.1577 22.7741C38.0126 23.0557 36.2477 25.7369 35.9192 26.2573C35.8636 26.3366 35.7956 26.3264 35.7878 26.2358C35.7553 25.9263 35.4914 25.5698 35.0764 25.4007C34.7598 25.2703 34.4506 25.2469 34.1299 25.2904C33.5493 25.3694 33.0324 25.6806 32.5776 26.0301C31.8921 26.5587 31.3008 27.2429 30.5381 27.7485C30.1217 28.0235 29.5508 28.2638 29.1695 27.9053C28.8236 27.5808 28.8634 26.8592 29.391 26.301C29.4462 26.2435 29.5137 26.2911 29.5032 26.3441C29.453 26.5974 29.5139 26.848 29.7029 27.0234C29.9341 27.2322 30.2636 27.257 30.5461 27.1167C30.8796 26.9495 31.0752 26.6257 31.1325 26.2597C31.2209 25.6895 30.7883 25.1875 30.2471 25.1475C29.8081 25.1159 29.3867 25.271 28.9763 25.6146C28.7713 25.7879 28.6535 25.9148 28.4759 26.1726C28.432 26.2358 28.3654 26.2422 28.368 26.1491C28.3882 25.4205 28.0911 25.0101 27.4964 24.9971C27.0351 24.985 26.5426 25.2399 26.1582 25.5497C25.7373 25.8918 25.3692 26.3471 24.9737 26.7738C24.9251 26.8261 24.8821 26.8237 24.869 26.7218C24.8569 26.2384 24.7367 25.7705 24.5164 25.4383C24.4376 25.323 24.2742 25.2658 24.1363 25.3438C24.0726 25.3788 23.8513 25.4825 23.689 25.6144C23.6098 25.6815 23.5789 25.7779 23.6134 25.9018C23.8258 26.6243 23.7793 27.444 23.4907 28.1376C23.2262 28.771 22.7111 29.3445 22.1052 29.5374C21.7069 29.6654 21.2914 29.6027 21.0347 29.2441C20.6832 28.7488 20.8242 27.889 21.3504 27.1742C21.8143 26.5443 22.4848 26.1446 23.1535 25.8871C23.2324 25.8558 23.2488 25.8048 23.2262 25.7371C23.19 25.6258 23.1321 25.4742 23.1083 25.4053C23.0472 25.2402 22.8747 25.2124 22.6648 25.2358C22.1789 25.2932 21.7406 25.4618 21.3074 25.697C20.1736 26.3128 19.6051 27.5042 19.3555 28.1421C19.2359 28.4489 19.133 28.6394 18.9997 28.8093C18.8207 29.0372 18.597 29.2444 18.1861 29.6099C18.1492 29.6437 18.1222 29.7131 18.1531 29.7784C18.1949 29.8663 18.4083 30.1715 18.4682 30.1992C18.5348 30.2328 18.6125 30.1862 18.6441 30.1633C18.9312 29.9664 19.2749 29.6536 19.4429 29.4406C19.5017 29.3682 19.5623 29.399 19.5939 29.5087C19.7503 30.0776 20.1613 30.5407 20.7293 30.7342C21.7697 31.089 22.8483 30.575 23.6623 29.6795C24.1796 29.1097 24.3664 28.743 24.5648 28.4945C24.9009 28.0719 25.5643 27.1272 26.3536 26.5212C26.6436 26.2975 26.9866 26.1271 27.1584 26.2405C27.2966 26.3315 27.3415 26.5417 27.119 26.9514C26.3142 28.4426 25.1293 30.1943 24.9113 30.6179C24.8721 30.6917 24.9071 30.7502 24.9831 30.7502C25.4039 30.7481 25.8222 30.7491 26.2043 30.7491C26.2683 30.7461 26.2963 30.7162 26.3284 30.6707C26.9467 29.6899 27.5283 28.7568 28.1517 27.7919C28.1864 27.7357 28.2185 27.7795 28.22 27.8035C28.2325 28.0284 28.2874 28.334 28.4181 28.5352C28.653 28.907 28.987 29.0668 29.3577 29.0696C29.6524 29.0731 29.8006 29.0276 30.119 28.907C30.3414 28.8223 30.5517 28.7077 30.7441 28.5664C30.8368 28.5011 30.8533 28.6112 30.8509 28.6283C30.7083 29.4067 30.8839 30.3296 31.6474 30.7111C32.5617 31.168 33.5645 30.5263 34.1412 29.9472C34.198 29.8913 34.2583 29.8966 34.2643 30.0168C34.2759 30.2393 34.3753 30.5013 34.5557 30.684C35.0389 31.1764 36.0157 30.9814 36.9945 30.213C37.6239 29.7207 38.2821 29.0251 38.8775 28.289C38.8984 28.2603 38.9157 28.2139 38.8732 28.1684C38.7833 28.0723 38.6521 27.9626 38.562 27.8775C38.5209 27.8428 38.4611 27.8528 38.4257 27.8794C37.8165 28.4664 37.2686 29.1375 36.4752 29.6909C36.2078 29.881 35.7819 30.0334 35.5901 29.7709C35.5156 29.669 35.5242 29.5271 35.5976 29.3426C35.8296 28.7568 39.49 23.107 39.6794 22.7741ZM34.8421 27.5117C34.8499 27.5551 34.9051 27.5967 34.9602 27.6171C34.9787 27.6248 34.9899 27.6377 34.9676 27.6836C34.8128 28.0221 34.6695 28.2165 34.4744 28.5109C34.2956 28.7822 34.0927 28.9945 33.8486 29.1981C33.4794 29.5077 32.9668 29.8441 32.543 29.6174C32.3549 29.519 32.2734 29.252 32.2777 29.0353C32.2874 28.4271 32.5527 27.8033 33.0451 27.19C33.6456 26.44 34.3101 26.0513 34.7458 26.2632C35.1962 26.4813 35.0526 27.0108 34.8509 27.4266C34.8354 27.4581 34.8337 27.4858 34.8421 27.5117Z" fill="white"/>
<path d="M13.133 30.729C11.7684 30.739 10.5669 29.8829 10.4286 28.4036C10.3521 27.5836 10.5807 26.852 11.0385 26.2498C11.4445 25.7131 12.1326 25.2675 12.7133 25.1583C12.9038 25.1235 13.1579 25.1462 13.2635 25.273C13.4282 25.4678 13.3802 25.682 13.2162 25.7669C12.7722 25.9965 12.2378 26.3901 11.974 26.9271C11.7596 27.3647 11.7161 27.8941 12.0427 28.3972C12.5915 29.2355 14.1186 29.2591 15.5388 27.9209C15.8908 27.5931 16.2053 27.2786 16.5261 26.9066C17.1513 26.1808 17.359 25.916 18.1907 24.747C18.2013 24.7339 18.204 24.7164 18.1995 24.7076C18.1928 24.6924 18.1807 24.688 18.1564 24.687C17.6017 24.7026 17.1173 24.8708 16.6474 25.2266C16.5119 25.3265 16.3168 25.3123 16.2315 25.1807C16.1368 25.0316 16.2046 24.8375 16.361 24.7283C17.1173 24.1952 17.9442 24.0978 18.7885 23.9531C18.788 23.9531 18.8476 23.9555 18.8954 23.8908C19.2419 23.4403 19.5034 23.0335 19.8733 22.5771C20.2457 22.1146 20.7261 21.6907 21.0937 21.3706C21.6065 20.9232 21.9354 20.7729 22.2696 20.5886C22.3578 20.5417 22.2589 20.4859 22.2315 20.4859C20.3655 20.1307 18.4264 19.6701 16.5737 20.3656C15.2898 20.8515 14.7271 21.8836 14.9986 22.5727C15.1902 23.0617 15.825 23.141 16.4188 22.8466C16.9376 22.587 17.3776 22.1903 17.6925 21.6983C17.8733 21.4159 18.2544 21.6195 18.0485 22.1103C17.5064 23.4023 16.4706 24.4271 15.2091 24.4694C14.1348 24.5055 13.4417 23.7047 13.4444 22.7164C13.4481 20.7669 15.5892 19.483 17.838 19.2908C20.5468 19.0643 23.1124 19.7959 25.8013 20.1265C27.8621 20.3791 29.838 20.3843 31.9089 19.9023C32.1534 19.8484 32.326 20.0065 32.3091 20.2573C32.2889 20.6197 32.0118 20.9686 31.3303 21.3459C30.5541 21.7777 29.7433 21.9081 28.8955 21.9156C26.8455 21.9326 24.9357 21.1228 22.9601 20.6877C22.9629 20.775 22.9853 20.8798 22.9128 20.9351C21.8187 21.7532 20.8294 22.5848 20.1665 23.7516C20.1445 23.7789 20.1566 23.8042 20.1951 23.8014C20.7703 23.7707 21.2882 23.756 21.8247 23.7124C21.9183 23.7046 21.9218 23.6811 21.914 23.6114C21.8669 23.2091 21.9824 22.75 22.3314 22.4341C22.6884 22.1097 23.1359 22.073 23.4321 22.3061C23.7692 22.5727 23.7396 23.0521 23.5555 23.4116C23.3675 23.7761 23.0575 23.9704 22.7601 24.0648C22.7601 24.0648 22.6977 24.0791 22.7071 24.1369C22.7186 24.2282 23.1241 24.4565 23.1588 24.5172C23.1923 24.5744 23.1756 24.664 23.1131 24.7325C23.0701 24.7822 23.0029 24.8293 22.9175 24.828C22.8469 24.8265 22.8051 24.802 22.7164 24.7526C22.5334 24.6532 22.3071 24.489 22.155 24.2949C22.1037 24.2298 22.0773 24.2281 21.9478 24.2354C21.3671 24.2697 20.461 24.3579 19.8466 24.4362C19.6985 24.4549 19.6764 24.4831 19.6455 24.5345C18.6665 26.1717 17.6214 27.9365 16.4737 29.1181C15.2425 30.3874 14.2189 30.7199 13.133 30.729ZM22.4611 23.4571C22.4771 23.5407 22.5089 23.557 22.5465 23.5498C22.7328 23.512 22.9365 23.3563 23.0577 23.1767C23.1682 23.013 23.2194 22.7769 23.11 22.6821C23.0124 22.5975 22.8538 22.622 22.7359 22.7272C22.5023 22.9371 22.4314 23.2344 22.4611 23.4571Z" fill="white"/>
</g>
<defs>
<radialGradient id="paint0_radial" cx="0" cy="0" r="1" gradientUnits="userSpaceOnUse" gradientTransform="translate(24.8341 47.345) scale(107.672 55.4452)">
<stop stop-color="#00082E"/>
<stop offset="0.155" stop-color="#000A30"/>
<stop offset="0.242" stop-color="#010F39"/>
<stop offset="0.312" stop-color="#011946"/>
<stop offset="0.373" stop-color="#02275A"/>
<stop offset="0.414" stop-color="#03346C"/>
<stop offset="0.439" stop-color="#0B4F87"/>
<stop offset="0.48" stop-color="#1676AF"/>
<stop offset="0.513" stop-color="#1C8EC7"/>
<stop offset="0.533" stop-color="#1F97D0"/>
<stop offset="1" stop-color="#1F97D0"/>
</radialGradient>
<linearGradient id="paint1_linear" x1="24.954" y1="35.2097" x2="24.954" y2="15.9111" gradientUnits="userSpaceOnUse">
<stop stop-color="#00082E"/>
<stop offset="0.321" stop-color="#010A30"/>
<stop offset="0.501" stop-color="#030F39"/>
<stop offset="0.647" stop-color="#071846"/>
<stop offset="0.773" stop-color="#0D245A"/>
<stop offset="0.809" stop-color="#0F2961"/>
<stop offset="0.839" stop-color="#0B386E"/>
<stop offset="0.896" stop-color="#054E83"/>
<stop offset="0.951" stop-color="#015B90"/>
<stop offset="1" stop-color="#006094"/>
</linearGradient>
<linearGradient id="paint2_linear" x1="4543.73" y1="35.2139" x2="4543.73" y2="15.8976" gradientUnits="userSpaceOnUse">
<stop stop-color="#00082E"/>
<stop offset="0.321" stop-color="#010A30"/>
<stop offset="0.501" stop-color="#030F39"/>
<stop offset="0.647" stop-color="#071846"/>
<stop offset="0.773" stop-color="#0D245A"/>
<stop offset="0.809" stop-color="#0F2961"/>
<stop offset="0.839" stop-color="#0B386E"/>
<stop offset="0.896" stop-color="#054E83"/>
<stop offset="0.951" stop-color="#015B90"/>
<stop offset="1" stop-color="#006094"/>
</linearGradient>
<linearGradient id="paint3_linear" x1="29.2667" y1="31.9367" x2="29.2667" y2="18.3772" gradientUnits="userSpaceOnUse">
<stop stop-color="#00082E"/>
<stop offset="0.321" stop-color="#010A30"/>
<stop offset="0.501" stop-color="#030F39"/>
<stop offset="0.647" stop-color="#071846"/>
<stop offset="0.773" stop-color="#0D245A"/>
<stop offset="0.809" stop-color="#0F2961"/>
<stop offset="0.839" stop-color="#0B386E"/>
<stop offset="0.896" stop-color="#054E83"/>
<stop offset="0.951" stop-color="#015B90"/>
<stop offset="1" stop-color="#006094"/>
</linearGradient>
<linearGradient id="paint4_linear" x1="34.9119" y1="31.9167" x2="34.9119" y2="18.4458" gradientUnits="userSpaceOnUse">
<stop stop-color="#00082E"/>
<stop offset="0.321" stop-color="#010A30"/>
<stop offset="0.501" stop-color="#030F39"/>
<stop offset="0.647" stop-color="#071846"/>
<stop offset="0.773" stop-color="#0D245A"/>
<stop offset="0.809" stop-color="#0F2961"/>
<stop offset="0.839" stop-color="#0B386E"/>
<stop offset="0.896" stop-color="#054E83"/>
<stop offset="0.951" stop-color="#015B90"/>
<stop offset="1" stop-color="#006094"/>
</linearGradient>
<linearGradient id="paint5_linear" x1="35.7305" y1="31.8781" x2="35.7305" y2="18.474" gradientUnits="userSpaceOnUse">
<stop stop-color="#00082E"/>
<stop offset="0.321" stop-color="#010A30"/>
<stop offset="0.501" stop-color="#030F39"/>
<stop offset="0.647" stop-color="#071846"/>
<stop offset="0.773" stop-color="#0D245A"/>
<stop offset="0.809" stop-color="#0F2961"/>
<stop offset="0.839" stop-color="#0B386E"/>
<stop offset="0.896" stop-color="#054E83"/>
<stop offset="0.951" stop-color="#015B90"/>
<stop offset="1" stop-color="#006094"/>
</linearGradient>
<linearGradient id="paint6_linear" x1="28.356" y1="31.9655" x2="28.356" y2="18.3744" gradientUnits="userSpaceOnUse">
<stop stop-color="#00082E"/>
<stop offset="0.321" stop-color="#010A30"/>
<stop offset="0.501" stop-color="#030F39"/>
<stop offset="0.647" stop-color="#071846"/>
<stop offset="0.773" stop-color="#0D245A"/>
<stop offset="0.809" stop-color="#0F2961"/>
<stop offset="0.839" stop-color="#0B386E"/>
<stop offset="0.896" stop-color="#054E83"/>
<stop offset="0.951" stop-color="#015B90"/>
<stop offset="1" stop-color="#006094"/>
</linearGradient>
<linearGradient id="paint7_linear" x1="33.659" y1="31.9355" x2="33.659" y2="18.3974" gradientUnits="userSpaceOnUse">
<stop stop-color="#00082E"/>
<stop offset="0.321" stop-color="#010A30"/>
<stop offset="0.501" stop-color="#030F39"/>
<stop offset="0.647" stop-color="#071846"/>
<stop offset="0.773" stop-color="#0D245A"/>
<stop offset="0.809" stop-color="#0F2961"/>
<stop offset="0.839" stop-color="#0B386E"/>
<stop offset="0.896" stop-color="#054E83"/>
<stop offset="0.951" stop-color="#015B90"/>
<stop offset="1" stop-color="#006094"/>
</linearGradient>
<linearGradient id="paint8_linear" x1="22.1105" y1="31.9259" x2="22.1105" y2="18.402" gradientUnits="userSpaceOnUse">
<stop stop-color="#00082E"/>
<stop offset="0.321" stop-color="#010A30"/>
<stop offset="0.501" stop-color="#030F39"/>
<stop offset="0.647" stop-color="#071846"/>
<stop offset="0.773" stop-color="#0D245A"/>
<stop offset="0.809" stop-color="#0F2961"/>
<stop offset="0.839" stop-color="#0B386E"/>
<stop offset="0.896" stop-color="#054E83"/>
<stop offset="0.951" stop-color="#015B90"/>
<stop offset="1" stop-color="#006094"/>
</linearGradient>
<linearGradient id="paint9_linear" x1="27.874" y1="31.9347" x2="27.874" y2="18.3864" gradientUnits="userSpaceOnUse">
<stop stop-color="#00082E"/>
<stop offset="0.321" stop-color="#010A30"/>
<stop offset="0.501" stop-color="#030F39"/>
<stop offset="0.647" stop-color="#071846"/>
<stop offset="0.773" stop-color="#0D245A"/>
<stop offset="0.809" stop-color="#0F2961"/>
<stop offset="0.839" stop-color="#0B386E"/>
<stop offset="0.896" stop-color="#054E83"/>
<stop offset="0.951" stop-color="#015B90"/>
<stop offset="1" stop-color="#006094"/>
</linearGradient>
<linearGradient id="paint10_linear" x1="34.9408" y1="31.9672" x2="34.9408" y2="18.3167" gradientUnits="userSpaceOnUse">
<stop stop-color="#00082E"/>
<stop offset="0.321" stop-color="#010A30"/>
<stop offset="0.501" stop-color="#030F39"/>
<stop offset="0.647" stop-color="#071846"/>
<stop offset="0.773" stop-color="#0D245A"/>
<stop offset="0.809" stop-color="#0F2961"/>
<stop offset="0.839" stop-color="#0B386E"/>
<stop offset="0.896" stop-color="#054E83"/>
<stop offset="0.951" stop-color="#015B90"/>
<stop offset="1" stop-color="#006094"/>
</linearGradient>
<linearGradient id="paint11_linear" x1="30.4026" y1="31.9799" x2="30.4026" y2="18.3637" gradientUnits="userSpaceOnUse">
<stop stop-color="#00082E"/>
<stop offset="0.321" stop-color="#010A30"/>
<stop offset="0.501" stop-color="#030F39"/>
<stop offset="0.647" stop-color="#071846"/>
<stop offset="0.773" stop-color="#0D245A"/>
<stop offset="0.809" stop-color="#0F2961"/>
<stop offset="0.839" stop-color="#0B386E"/>
<stop offset="0.896" stop-color="#054E83"/>
<stop offset="0.951" stop-color="#015B90"/>
<stop offset="1" stop-color="#006094"/>
</linearGradient>
<linearGradient id="paint12_linear" x1="37.682" y1="31.9401" x2="37.682" y2="18.4127" gradientUnits="userSpaceOnUse">
<stop stop-color="#00082E"/>
<stop offset="0.321" stop-color="#010A30"/>
<stop offset="0.501" stop-color="#030F39"/>
<stop offset="0.647" stop-color="#071846"/>
<stop offset="0.773" stop-color="#0D245A"/>
<stop offset="0.809" stop-color="#0F2961"/>
<stop offset="0.839" stop-color="#0B386E"/>
<stop offset="0.896" stop-color="#054E83"/>
<stop offset="0.951" stop-color="#015B90"/>
<stop offset="1" stop-color="#006094"/>
</linearGradient>
<linearGradient id="paint13_linear" x1="24.7976" y1="31.9472" x2="24.7976" y2="18.3839" gradientUnits="userSpaceOnUse">
<stop stop-color="#00082E"/>
<stop offset="0.321" stop-color="#010A30"/>
<stop offset="0.501" stop-color="#030F39"/>
<stop offset="0.647" stop-color="#071846"/>
<stop offset="0.773" stop-color="#0D245A"/>
<stop offset="0.809" stop-color="#0F2961"/>
<stop offset="0.839" stop-color="#0B386E"/>
<stop offset="0.896" stop-color="#054E83"/>
<stop offset="0.951" stop-color="#015B90"/>
<stop offset="1" stop-color="#006094"/>
</linearGradient>
<linearGradient id="paint14_linear" x1="22.7147" y1="31.9366" x2="22.7147" y2="18.4073" gradientUnits="userSpaceOnUse">
<stop stop-color="#00082E"/>
<stop offset="0.321" stop-color="#010A30"/>
<stop offset="0.501" stop-color="#030F39"/>
<stop offset="0.647" stop-color="#071846"/>
<stop offset="0.773" stop-color="#0D245A"/>
<stop offset="0.809" stop-color="#0F2961"/>
<stop offset="0.839" stop-color="#0B386E"/>
<stop offset="0.896" stop-color="#054E83"/>
<stop offset="0.951" stop-color="#015B90"/>
<stop offset="1" stop-color="#006094"/>
</linearGradient>
<linearGradient id="paint15_linear" x1="12.6388" y1="31.9407" x2="12.6388" y2="18.402" gradientUnits="userSpaceOnUse">
<stop stop-color="#00082E"/>
<stop offset="0.321" stop-color="#010A30"/>
<stop offset="0.501" stop-color="#030F39"/>
<stop offset="0.647" stop-color="#071846"/>
<stop offset="0.773" stop-color="#0D245A"/>
<stop offset="0.809" stop-color="#0F2961"/>
<stop offset="0.839" stop-color="#0B386E"/>
<stop offset="0.896" stop-color="#054E83"/>
<stop offset="0.951" stop-color="#015B90"/>
<stop offset="1" stop-color="#006094"/>
</linearGradient>
<linearGradient id="paint16_linear" x1="18.6168" y1="32.0177" x2="18.6168" y2="18.3507" gradientUnits="userSpaceOnUse">
<stop stop-color="#00082E"/>
<stop offset="0.321" stop-color="#010A30"/>
<stop offset="0.501" stop-color="#030F39"/>
<stop offset="0.647" stop-color="#071846"/>
<stop offset="0.773" stop-color="#0D245A"/>
<stop offset="0.809" stop-color="#0F2961"/>
<stop offset="0.839" stop-color="#0B386E"/>
<stop offset="0.896" stop-color="#054E83"/>
<stop offset="0.951" stop-color="#015B90"/>
<stop offset="1" stop-color="#006094"/>
</linearGradient>
<linearGradient id="paint17_linear" x1="16.8743" y1="31.9396" x2="16.8743" y2="18.3975" gradientUnits="userSpaceOnUse">
<stop stop-color="#00082E"/>
<stop offset="0.321" stop-color="#010A30"/>
<stop offset="0.501" stop-color="#030F39"/>
<stop offset="0.647" stop-color="#071846"/>
<stop offset="0.773" stop-color="#0D245A"/>
<stop offset="0.809" stop-color="#0F2961"/>
<stop offset="0.839" stop-color="#0B386E"/>
<stop offset="0.896" stop-color="#054E83"/>
<stop offset="0.951" stop-color="#015B90"/>
<stop offset="1" stop-color="#006094"/>
</linearGradient>
<linearGradient id="paint18_linear" x1="17.1941" y1="31.9714" x2="17.1941" y2="18.3821" gradientUnits="userSpaceOnUse">
<stop stop-color="#00082E"/>
<stop offset="0.321" stop-color="#010A30"/>
<stop offset="0.501" stop-color="#030F39"/>
<stop offset="0.647" stop-color="#071846"/>
<stop offset="0.773" stop-color="#0D245A"/>
<stop offset="0.809" stop-color="#0F2961"/>
<stop offset="0.839" stop-color="#0B386E"/>
<stop offset="0.896" stop-color="#054E83"/>
<stop offset="0.951" stop-color="#015B90"/>
<stop offset="1" stop-color="#006094"/>
</linearGradient>
<linearGradient id="paint19_linear" x1="26.2795" y1="31.9479" x2="26.2795" y2="18.3964" gradientUnits="userSpaceOnUse">
<stop stop-color="#00082E"/>
<stop offset="0.321" stop-color="#010A30"/>
<stop offset="0.501" stop-color="#030F39"/>
<stop offset="0.647" stop-color="#071846"/>
<stop offset="0.773" stop-color="#0D245A"/>
<stop offset="0.809" stop-color="#0F2961"/>
<stop offset="0.839" stop-color="#0B386E"/>
<stop offset="0.896" stop-color="#054E83"/>
<stop offset="0.951" stop-color="#015B90"/>
<stop offset="1" stop-color="#006094"/>
</linearGradient>
<linearGradient id="paint20_linear" x1="22.8076" y1="31.9507" x2="22.8076" y2="18.3935" gradientUnits="userSpaceOnUse">
<stop stop-color="#00082E"/>
<stop offset="0.321" stop-color="#010A30"/>
<stop offset="0.501" stop-color="#030F39"/>
<stop offset="0.647" stop-color="#071846"/>
<stop offset="0.773" stop-color="#0D245A"/>
<stop offset="0.809" stop-color="#0F2961"/>
<stop offset="0.839" stop-color="#0B386E"/>
<stop offset="0.896" stop-color="#054E83"/>
<stop offset="0.951" stop-color="#015B90"/>
<stop offset="1" stop-color="#006094"/>
</linearGradient>
<linearGradient id="paint21_linear" x1="23.247" y1="31.9397" x2="23.247" y2="18.4032" gradientUnits="userSpaceOnUse">
<stop stop-color="#00082E"/>
<stop offset="0.321" stop-color="#010A30"/>
<stop offset="0.501" stop-color="#030F39"/>
<stop offset="0.647" stop-color="#071846"/>
<stop offset="0.773" stop-color="#0D245A"/>
<stop offset="0.809" stop-color="#0F2961"/>
<stop offset="0.839" stop-color="#0B386E"/>
<stop offset="0.896" stop-color="#054E83"/>
<stop offset="0.951" stop-color="#015B90"/>
<stop offset="1" stop-color="#006094"/>
</linearGradient>
<linearGradient id="paint22_linear" x1="15.958" y1="31.9669" x2="15.958" y2="18.3983" gradientUnits="userSpaceOnUse">
<stop stop-color="#00082E"/>
<stop offset="0.321" stop-color="#010A30"/>
<stop offset="0.501" stop-color="#030F39"/>
<stop offset="0.647" stop-color="#071846"/>
<stop offset="0.773" stop-color="#0D245A"/>
<stop offset="0.809" stop-color="#0F2961"/>
<stop offset="0.839" stop-color="#0B386E"/>
<stop offset="0.896" stop-color="#054E83"/>
<stop offset="0.951" stop-color="#015B90"/>
<stop offset="1" stop-color="#006094"/>
</linearGradient>
<linearGradient id="paint23_linear" x1="19.5253" y1="39.5479" x2="13.5999" y2="17.7365" gradientUnits="userSpaceOnUse">
<stop stop-color="#A5A5A6"/>
<stop offset="0.35" stop-color="#D7D7D7"/>
<stop offset="0.65" stop-color="#D7D7D7"/>
<stop offset="1" stop-color="#A5A5A6"/>
</linearGradient>
<linearGradient id="paint24_linear" x1="34.6761" y1="27.4658" x2="28.7636" y2="5.70226" gradientUnits="userSpaceOnUse">
<stop stop-color="#A5A5A6"/>
<stop offset="0.35" stop-color="#D7D7D7"/>
<stop offset="0.65" stop-color="#D7D7D7"/>
<stop offset="1" stop-color="#A5A5A6"/>
</linearGradient>
<clipPath id="clip0">
<rect y="16" width="50" height="19" fill="white"/>
</clipPath>
</defs>
</svg>
