<svg width="50" height="50" viewBox="0 0 50 50" fill="none" xmlns="http://www.w3.org/2000/svg">
<path fill-rule="evenodd" clip-rule="evenodd" d="M25.589 9.0178C26.3762 9.03973 26.2926 9.59634 26.1623 9.78823C23.8391 13.4247 18.3498 19.8277 14.3528 26.8528C13.6911 27.9911 13.1983 28.8285 13.1983 30.0776C13.1983 31.7712 14.249 33.7734 16.3598 34.6327C17.7484 35.1924 18.6225 35.2096 20.1211 35.2314C31.2473 35.5776 35.7077 35.2751 45.6637 34.9352C46.2387 34.9335 46.7733 34.5437 46.9655 34.3083C48.8904 32.2888 50 28.6585 50 25.4555C50 18.3213 44.8934 11.895 36.9274 8.80425L35.6488 10.4541C42.6307 13.3577 46.2387 19.1571 46.2387 25.3682C46.2387 26.7655 46.003 28.1189 45.5768 29.4117C45.2608 30.3131 44.8718 30.8308 43.7403 30.8479C35.627 31.0225 31.0334 31.1504 22.8984 30.9352C21.8492 30.9134 21.5099 30.5283 21.3393 29.6924C21.2091 29.1965 21.3177 28.7848 21.6571 28.1627C25.9718 20.4717 33.4883 11.6813 34.9638 9.59634C35.2442 9.21119 35.1125 8.43463 34.1501 8.17737C31.334 7.33993 28.1741 7 24.9706 7C10.4659 7.05924 0.235514 15.2679 0 25.4555C0.581205 37.6844 11.1493 44 24.9706 44C33.4279 44 41.1754 40.9918 45.7086 36.2216L41.521 36.3916C37.6542 39.8519 31.4596 41.7014 25.0527 41.7014C13.3749 41.7014 3.86676 35.8582 3.86676 25.3682C3.86676 16.3455 13.3733 8.99601 25.0527 8.99601L25.589 9.0178Z" fill="black"/>
<path fill-rule="evenodd" clip-rule="evenodd" d="M25.589 9.0178C26.3762 9.03973 26.2926 9.59634 26.1623 9.78823C23.8391 13.4247 18.3498 19.8277 14.3528 26.8528C13.6911 27.9911 13.1983 28.8285 13.1983 30.0776C13.1983 31.7712 14.249 33.7734 16.3598 34.6327C17.7484 35.1924 18.6225 35.2096 20.1211 35.2314C31.2473 35.5776 35.7077 35.2751 45.6637 34.9352C46.2387 34.9335 46.7733 34.5437 46.9655 34.3083C48.8904 32.2888 50 28.6585 50 25.4555C50 18.3213 44.8934 11.895 36.9274 8.80425L35.6488 10.4541C42.6307 13.3577 46.2387 19.1571 46.2387 25.3682C46.2387 26.7655 46.003 28.1189 45.5768 29.4117C45.2608 30.3131 44.8718 30.8308 43.7403 30.8479C35.627 31.0225 31.0334 31.1504 22.8984 30.9352C21.8492 30.9134 21.5099 30.5283 21.3393 29.6924C21.2091 29.1965 21.3177 28.7848 21.6571 28.1627C25.9718 20.4717 33.4883 11.6813 34.9638 9.59634C35.2442 9.21119 35.1125 8.43463 34.1501 8.17737C31.334 7.33993 28.1741 7 24.9706 7C10.4659 7.05924 0.235514 15.2679 0 25.4555C0.581205 37.6844 11.1493 44 24.9706 44C33.4279 44 41.1754 40.9918 45.7086 36.2216L41.521 36.3916C37.6542 39.8519 31.4596 41.7014 25.0527 41.7014C13.3749 41.7014 3.86676 35.8582 3.86676 25.3682C3.86676 16.3455 13.3733 8.99601 25.0527 8.99601L25.589 9.0178Z" fill="url(#paint0_radial)"/>
<defs>
<radialGradient id="paint0_radial" cx="0" cy="0" r="1" gradientUnits="userSpaceOnUse" gradientTransform="translate(1.5 23) rotate(-1.16113) scale(57.8541 42.7401)">
<stop stop-color="#CDCDCD"/>
<stop offset="0.104167" stop-color="#C2C2C2"/>
<stop offset="0.225" stop-color="#C2C2C2"/>
<stop offset="0.287" stop-color="#B8B8B8"/>
<stop offset="0.413" stop-color="#A3A4A1"/>
<stop offset="0.52" stop-color="#7E7F7D"/>
<stop offset="0.6" stop-color="#686866"/>
<stop offset="0.646" stop-color="#5F5F5D"/>
<stop offset="0.739" stop-color="#565754"/>
<stop offset="0.899" stop-color="#3B3A37"/>
<stop offset="1"/>
</radialGradient>
</defs>
</svg>
