<svg width="50" height="50" viewBox="0 0 50 50" fill="none" xmlns="http://www.w3.org/2000/svg">
<g clip-path="url(#clip0)">
<path d="M33.2477 17.0648L25.3457 30.3818C25.188 30.6475 24.8033 30.6474 24.6457 30.3816L16.7522 17.0646C16.6764 16.9368 16.6764 16.7777 16.7521 16.6499L24.6456 3.3245C24.8031 3.05858 25.188 3.05848 25.3457 3.3243L33.2477 16.6497C33.3235 16.7777 33.3235 16.9369 33.2477 17.0648Z" fill="#E82934"/>
<path d="M15.8932 46.8737L0.40663 46.8427C0.0980359 46.8421 -0.0975696 46.5116 0.0503796 46.2408L7.48241 32.6337C7.5538 32.5029 7.691 32.4217 7.84003 32.4219L23.3295 32.4413C23.6382 32.4417 23.834 32.7722 23.6861 33.0431L16.2512 46.6618C16.1797 46.7927 16.0423 46.874 15.8932 46.8737Z" fill="#E82934"/>
<path d="M49.593 46.8431L47.0469 46.8481L34.1071 46.8746C33.9576 46.8746 33.8203 46.7933 33.749 46.662L26.3143 33.0434C26.1657 32.7729 26.3621 32.4423 26.6703 32.4412L39.6641 32.4249L42.1603 32.4219C42.3088 32.4219 42.4461 32.5032 42.5173 32.6345L49.95 46.2409C50.0976 46.5125 49.9023 46.8421 49.593 46.8431Z" fill="#E82934"/>
<path d="M49.5931 46.843L47.047 46.848L47.05 46.843C47.3593 46.842 47.5545 46.5124 47.407 46.2408L39.9743 32.6344C39.9103 32.5174 39.7942 32.4401 39.6641 32.4249L42.1603 32.4219C42.3088 32.4219 42.4461 32.5032 42.5173 32.6345L49.95 46.2409C50.0977 46.5124 49.9023 46.842 49.5931 46.843Z" fill="#C7232C"/>
<path d="M23.3295 32.4413L7.84004 32.4219C7.82393 32.4219 7.80811 32.4232 7.79248 32.4251L20.7526 32.4414C21.0613 32.4418 21.2571 32.7723 21.1093 33.0432L13.6743 46.6619C13.6129 46.7743 13.5028 46.8498 13.3784 46.8687L15.8933 46.8738C16.0424 46.8741 16.1798 46.7928 16.2512 46.6619L23.6861 33.0432C23.8341 32.7722 23.6382 32.4417 23.3295 32.4413Z" fill="#C7232C"/>
<path d="M30.6538 16.6497C30.7297 16.7777 30.7297 16.9368 30.6537 17.0648L23.6993 28.785L24.6457 30.3817C24.8032 30.6475 25.188 30.6476 25.3456 30.3819L33.2476 17.0649C33.3234 16.9369 33.3235 16.7778 33.2476 16.6498L25.3457 3.32434C25.1881 3.05852 24.8031 3.05852 24.6456 3.32454L23.6992 4.92209L30.6538 16.6497Z" fill="#C7232C"/>
</g>
<defs>
<clipPath id="clip0">
<rect width="50" height="50" fill="white"/>
</clipPath>
</defs>
</svg>
