<svg width="50" height="50" viewBox="0 0 50 50" fill="none" xmlns="http://www.w3.org/2000/svg">
<g clip-path="url(#clip0)">
<path d="M48.2798 20.031C47.8177 19.9036 47.3033 19.8433 46.2195 19.7112C41.734 19.5294 30.649 19.1035 25.0002 19.1035C19.3517 19.1035 8.2665 19.5291 3.7815 19.7112C2.69725 19.8433 2.18225 19.9036 1.7205 20.031C0.31025 20.3596 0 20.8597 0 21.8577V28.6971C0 29.6953 1.08225 30.3679 1.82825 30.5035C2.57475 30.6401 3.047 30.6946 3.83225 30.7685C7.844 31.014 17.1515 31.5258 25 31.534C32.8488 31.5266 42.1558 31.0143 46.1678 30.7685C46.9528 30.6946 47.4253 30.6398 48.172 30.5035C48.9178 30.3676 50 29.6953 50 28.6971V21.8577C50 20.8597 49.69 20.3596 48.2798 20.031Z" fill="url(#paint0_linear)"/>
<path d="M7.01275 20.3006C9.21975 12.7149 16.4715 7.14909 25.0797 7.14909C33.6632 7.14909 40.9002 12.6843 43.1287 20.2396C43.1357 20.2663 43.1405 20.2801 43.1482 20.3058C44.4277 20.1637 45.574 19.9444 46.384 19.7307C46.3692 19.6821 46.3655 19.6722 46.3527 19.6243C43.82 10.6245 35.2555 4.00195 25.0797 4.00195C14.8697 4.00195 6.28275 10.6675 3.78125 19.7117C4.9065 20.0163 5.73075 20.144 7.01275 20.3006Z" fill="url(#paint1_radial)"/>
<path d="M43.0755 30.2422C43.0533 30.3096 43.0285 30.384 43.017 30.4208C40.6703 37.7945 33.5278 43.1576 25.0795 43.1576C16.5645 43.1576 9.37703 37.7117 7.08728 30.2494C5.68778 30.4941 5.21503 30.5873 3.83203 30.7691C6.39453 39.7249 14.9355 46.3047 25.0795 46.3047C35.2278 46.3047 43.7718 39.718 46.3295 30.7547C45.111 30.606 44.3933 30.4936 43.0755 30.2422Z" fill="url(#paint2_radial)"/>
<path d="M7.46292 20.2838C7.99417 20.067 8.50817 19.7212 9.30942 19.4986C11.6982 13.3666 17.8567 8.99997 25.0792 8.99997C32.2792 8.99997 38.4224 13.3397 40.8262 19.442C40.8347 19.4628 40.8434 19.488 40.8502 19.5035C41.2637 19.6451 42.4819 20.1332 42.8609 20.2964C42.9147 20.2977 43.0294 20.3016 43.1479 20.3048C43.141 20.2829 43.1345 20.2608 43.1284 20.2386C40.8989 12.6858 33.6622 7.15234 25.0792 7.15234C16.4732 7.15234 9.22142 12.7157 7.01367 20.2999C7.14117 20.3001 7.38392 20.2893 7.46292 20.2838Z" fill="url(#paint3_radial)"/>
<path d="M24.9424 7.66684C32.9957 7.66684 40.1344 12.4114 42.8384 20.2319L42.8604 20.2984C42.9024 20.2984 43.0557 20.3038 43.1474 20.3068C43.1402 20.2784 43.1327 20.2618 43.1279 20.2406C40.8984 12.6878 33.6617 7.1543 25.0787 7.1543C16.4727 7.1543 9.22093 12.7177 7.01318 20.3018C7.18518 20.2991 7.26793 20.2991 7.46293 20.2855C9.88043 12.8609 16.9484 7.66684 24.9424 7.66684Z" fill="white"/>
<path d="M42.6194 30.2654C42.0409 30.5848 41.3207 30.892 40.7449 31.0716C40.7372 31.0899 40.7044 31.1709 40.6974 31.1899C38.2069 37.1236 32.1527 41.3121 25.0797 41.3121C17.9622 41.3121 11.8769 37.0727 9.41542 31.0803C8.75317 30.8987 7.76318 30.4526 7.38843 30.2664C7.24818 30.2597 7.17268 30.2557 7.08643 30.2513C9.37618 37.7127 16.5649 43.1595 25.0799 43.1595C33.5564 43.1595 40.7174 37.7626 43.0407 30.3538C43.0457 30.3395 43.0714 30.258 43.0769 30.2441C42.9427 30.2493 42.7374 30.2654 42.6194 30.2654Z" fill="url(#paint4_radial)"/>
<path d="M47.879 20.5279C46.691 20.3851 45.881 20.4004 42.987 20.3019C42.8555 20.2972 42.7217 20.2932 42.586 20.2885C37.3385 20.1107 29.456 19.873 25 19.873C20.5443 19.873 12.662 20.1107 7.41375 20.2885C7.27825 20.2932 7.145 20.2972 7.01375 20.3019C4.11925 20.4004 3.3095 20.3851 2.12125 20.5279C0.93325 20.6719 0 21.1859 0 22.0601V28.4025C0 29.2772 1.12425 29.9854 2.121 29.9854C2.121 29.9854 14.8075 30.7592 25 30.7684C35.1927 30.7592 47.879 29.9854 47.879 29.9854C48.8758 29.9854 50 29.2772 50 28.4025V22.0601C50 21.1859 49.067 20.6719 47.879 20.5279Z" fill="url(#paint5_radial)"/>
<path d="M42.6194 30.2644C40.1296 37.5618 33.1276 42.6453 25.2184 42.6453C17.2286 42.6453 10.1391 37.9753 7.38764 30.2644C7.28664 30.2592 7.18664 30.2553 7.08789 30.2496C9.37714 37.7113 16.5671 43.1581 25.0824 43.1581C33.6004 43.1581 40.7911 37.7078 43.0784 30.2422C42.9279 30.2491 42.7751 30.2573 42.6194 30.2644Z" fill="white"/>
<path d="M42.6338 30.2637L42.6186 30.2642C42.0401 30.5835 41.3203 30.8908 40.7441 31.0704C40.7363 31.0887 40.7036 31.1697 40.6968 31.1887C39.9088 33.0665 38.7638 34.7694 37.3413 36.2205C39.5678 34.6123 41.3838 32.5804 42.6338 30.2637Z" fill="#8C8C8C"/>
<path d="M13.2977 36.6921C11.6232 35.1162 10.2902 33.2085 9.41518 31.0781C8.75293 30.8963 7.76318 30.4499 7.38818 30.2637C7.78891 31.0845 8.26137 31.8691 8.80018 32.6088C9.90243 34.0271 11.2384 35.2913 12.7592 36.3611C12.9362 36.4757 13.1157 36.5859 13.2977 36.6921Z" fill="#4D4D4D"/>
<path d="M7.08703 30.2505V30.25L7.08128 30.251C5.68628 30.4953 5.21303 30.5889 3.83203 30.7697C3.94328 31.16 4.06653 31.5446 4.20078 31.9252L7.08703 30.2505Z" fill="#252525"/>
<path d="M35.159 23.3371C34.742 22.4163 34.89 22.5128 33.9823 22.4891C33.9085 22.4644 33.7118 22.4644 33.4423 22.4644C33.1733 22.4644 33.1238 22.4644 32.9028 22.4891C32.0448 22.4891 32.1918 22.4407 31.8978 23.0464C31.8978 23.0464 30.425 26.3173 29.788 27.6741L29.7635 27.7225C29.641 27.9643 29.7148 27.9643 29.9105 27.9643H31.2353C31.3338 27.9643 31.3823 27.9169 31.4068 27.8675C31.4068 27.8675 31.603 27.4555 31.8483 26.8743H35.0855C35.331 27.4318 35.5025 27.8433 35.5025 27.8675C35.527 27.9404 35.6008 27.9643 35.674 27.9643H37.0475C37.2438 27.9643 37.293 27.9898 37.2195 27.8191C36.9738 27.2379 35.3798 23.8452 35.159 23.3371ZM32.3383 25.7114C32.7553 24.7423 33.1728 23.7975 33.1728 23.7731C33.1975 23.7244 33.2465 23.7002 33.3198 23.7002C33.3445 23.6755 33.4185 23.6755 33.4918 23.6755C33.541 23.6755 33.614 23.6755 33.6388 23.7002C33.6875 23.7002 33.7375 23.7244 33.761 23.7973C33.86 24.0633 34.227 24.8876 34.5703 25.7114H32.3383ZM14.6803 22.416C14.8028 22.416 14.8275 22.4642 14.8275 22.5613V27.7472C14.8275 27.8677 14.8028 27.9171 14.656 27.9171H13.3805C13.2338 27.9171 13.2093 27.8924 13.2093 27.7472V22.5613C13.2093 22.4642 13.2338 22.416 13.3315 22.416H14.6803ZM11.958 22.4642C12.1048 22.4642 12.13 22.5123 12.13 22.6341V27.7956C12.13 27.9414 12.1048 27.9656 11.958 27.9656H10.4618C9.57927 27.9656 9.50552 27.9656 9.21152 27.4814C8.59827 26.5366 6.75852 23.7499 6.75852 23.7499V27.7961C6.75852 27.9421 6.73402 27.9658 6.58727 27.9658H5.48327C5.33627 27.9658 5.31152 27.9421 5.31152 27.7961V22.6341C5.31152 22.5128 5.33627 22.4642 5.48327 22.4642H6.75852C7.71502 22.4642 7.83752 22.4402 8.18152 22.9249C8.45102 23.3613 10.6828 26.7535 10.6828 26.7535V22.6341C10.6828 22.5128 10.7073 22.4642 10.8548 22.4642H11.958ZM44.699 22.4642C44.847 22.4642 44.871 22.5123 44.871 22.6341V27.7956C44.871 27.9414 44.8465 27.9656 44.699 27.9656H43.2043C42.3205 27.9656 42.2468 27.9656 41.9528 27.4814C41.339 26.5359 39.4998 23.7494 39.4998 23.7494V27.7959C39.4998 27.9416 39.4753 27.9653 39.3278 27.9653H38.2248C38.0778 27.9653 38.0525 27.9416 38.0525 27.7959V22.6341C38.0525 22.5128 38.078 22.4642 38.2248 22.4642H39.4998C40.4563 22.4642 40.5793 22.4402 40.922 22.9249C41.2165 23.3613 43.424 26.7535 43.424 26.7535V22.6341C43.424 22.5128 43.4487 22.4642 43.596 22.4642H44.699ZM20.2968 24.5731C21.278 24.6697 21.9895 24.8392 22.1855 25.7603C22.1855 25.8324 22.2103 26.075 22.2103 26.3417C22.2103 26.5117 22.2103 26.729 22.161 26.9232C21.9898 27.7954 21.327 27.9648 20.2975 27.9648H16.1765C16.0293 27.9648 16.0045 27.9411 16.0045 27.7954V26.9232C16.0045 26.7774 16.0293 26.7532 16.1765 26.7532H20.3453C20.5173 26.7532 20.5663 26.7051 20.5905 26.5833V26.3652V26.2199C20.5658 26.1226 20.5415 25.9774 20.321 25.9537C19.8548 25.9295 18.4818 25.8079 17.5493 25.7114C16.3475 25.5901 16.0535 25.0817 16.0043 24.6453C15.9798 24.4995 15.9798 24.3059 15.9798 24.1362C15.9798 23.9907 15.9798 23.7728 16.0043 23.6029C16.1763 22.827 16.765 22.4642 17.7945 22.4642H21.792C21.9398 22.4642 21.989 22.4889 21.989 22.6097V23.5066C21.989 23.6269 21.9398 23.6758 21.792 23.6516H17.8683C17.6965 23.6516 17.6233 23.7242 17.5983 23.8936V24.1117C17.5983 24.233 17.672 24.3301 17.8435 24.3536C18.3105 24.403 19.757 24.524 20.2968 24.5731ZM27.384 24.5731C28.366 24.6697 29.0768 24.8392 29.2733 25.7603C29.2733 25.8324 29.2978 26.075 29.2978 26.3417C29.2978 26.5117 29.2978 26.729 29.2488 26.9232C29.0775 27.7954 28.4155 27.9648 27.385 27.9648H23.2643C23.117 27.9648 23.0923 27.9411 23.0923 27.7954V26.9232C23.0923 26.7774 23.117 26.7532 23.2643 26.7532H27.4338C27.6053 26.7532 27.6535 26.7051 27.6788 26.5833V26.3652V26.2199C27.6533 26.1226 27.6048 25.9774 27.4088 25.9537C26.943 25.9295 25.5695 25.8079 24.6378 25.7114C23.4355 25.5901 23.1663 25.0817 23.0923 24.6453C23.0678 24.4995 23.0678 24.3059 23.0678 24.1362C23.0678 23.9907 23.0678 23.7728 23.0923 23.6029C23.2643 22.827 23.8528 22.4642 24.8825 22.4642H28.8808C29.0273 22.4642 29.077 22.4889 29.077 22.6097V23.5066C29.077 23.6269 29.0273 23.6758 28.8808 23.6516H24.9563C24.7848 23.6516 24.7115 23.7242 24.6865 23.8936V24.1117C24.6865 24.233 24.7358 24.3301 24.9323 24.3536C25.3983 24.403 26.8448 24.524 27.384 24.5731Z" fill="url(#paint6_radial)"/>
</g>
<defs>
<linearGradient id="paint0_linear" x1="25" y1="4.62584" x2="25" y2="39.0591" gradientUnits="userSpaceOnUse">
<stop offset="0.194" stop-color="white"/>
<stop offset="0.208" stop-color="#F8F8F8"/>
<stop offset="0.366" stop-color="#AEAEAE"/>
<stop offset="0.513" stop-color="#707070"/>
<stop offset="0.647" stop-color="#404040"/>
<stop offset="0.764" stop-color="#1D1D1D"/>
<stop offset="0.86" stop-color="#080808"/>
<stop offset="0.922"/>
</linearGradient>
<radialGradient id="paint1_radial" cx="0" cy="0" r="1" gradientUnits="userSpaceOnUse" gradientTransform="translate(10.9645 -4.50232) scale(34.8657 34.4486)">
<stop offset="0.202" stop-color="white"/>
<stop offset="0.382" stop-color="#FDFDFD"/>
<stop offset="0.487" stop-color="#F4F4F4"/>
<stop offset="0.573" stop-color="#E6E6E6"/>
<stop offset="0.648" stop-color="#D2D2D2"/>
<stop offset="0.689" stop-color="#C4C4C4"/>
<stop offset="1" stop-color="#333333"/>
</radialGradient>
<radialGradient id="paint2_radial" cx="0" cy="0" r="1" gradientUnits="userSpaceOnUse" gradientTransform="translate(95.3413 50.675) scale(72.6125 71.7438)">
<stop offset="0.202" stop-color="white"/>
<stop offset="0.368" stop-color="#E4E4E4"/>
<stop offset="0.594" stop-color="#C4C4C4"/>
<stop offset="1" stop-color="#333333"/>
</radialGradient>
<radialGradient id="paint3_radial" cx="0" cy="0" r="1" gradientUnits="userSpaceOnUse" gradientTransform="translate(19.3387 34.843) scale(22.2922 22.0256)">
<stop offset="0.202" stop-color="white"/>
<stop offset="0.368" stop-color="#E4E4E4"/>
<stop offset="0.594" stop-color="#C4C4C4"/>
<stop offset="1" stop-color="#333333"/>
</radialGradient>
<radialGradient id="paint4_radial" cx="0" cy="0" r="1" gradientUnits="userSpaceOnUse" gradientTransform="translate(37.3282 57.3664) scale(42.2985 41.7924)">
<stop offset="0.202" stop-color="white"/>
<stop offset="0.368" stop-color="#E4E4E4"/>
<stop offset="0.594" stop-color="#C4C4C4"/>
<stop offset="1" stop-color="#333333"/>
</radialGradient>
<radialGradient id="paint5_radial" cx="0" cy="0" r="1" gradientUnits="userSpaceOnUse" gradientTransform="translate(24.665 8.36094) scale(33.613 33.2109)">
<stop offset="0.202" stop-color="white"/>
<stop offset="0.397" stop-color="#FDFDFD"/>
<stop offset="0.51" stop-color="#F4F4F4"/>
<stop offset="0.603" stop-color="#E6E6E6"/>
<stop offset="0.684" stop-color="#D2D2D2"/>
<stop offset="0.728" stop-color="#C4C4C4"/>
<stop offset="1" stop-color="#4D4D4D"/>
</radialGradient>
<radialGradient id="paint6_radial" cx="0" cy="0" r="1" gradientUnits="userSpaceOnUse" gradientTransform="translate(25.4433 11.687) scale(22.6402 22.3693)">
<stop offset="0.111" stop-color="#4D4D4D"/>
<stop offset="0.248" stop-color="#494949"/>
<stop offset="0.355" stop-color="#404040"/>
<stop offset="0.451" stop-color="#2F2F2F"/>
<stop offset="0.541" stop-color="#181818"/>
<stop offset="0.611"/>
</radialGradient>
<clipPath id="clip0">
<rect y="4" width="50" height="42.3077" fill="white"/>
</clipPath>
</defs>
</svg>
